<svg width="500" height="500" viewBox="0 0 500 500" fill="none" xmlns="http://www.w3.org/2000/svg">
<path fill-rule="evenodd" clip-rule="evenodd" d="M50 0C22.3858 0 0 22.3858 0 50V450C0 477.614 22.3858 500 50 500H450C477.614 500 500 477.614 500 450V50C500 22.3858 477.614 0 450 0H50ZM201 412.336C216.333 418.112 232.667 421 250 421C267.333 421 283.5 418.112 298.5 412.336C313.833 406.256 327.167 398.048 338.5 387.712C349.833 377.376 358.667 365.368 365 351.688C371.667 337.704 375 322.808 375 307V93.136C375 89.184 373.5 85.84 370.5 83.104C367.5 80.368 363.833 79 359.5 79H250V107.728H344V307C344 319.768 341.167 331.624 335.5 342.568C329.833 353.208 322.167 362.48 312.5 370.384V136.456H281.5V387.712C271.833 390.752 261.333 392.272 250 392.272C237 392.272 224.833 390.144 213.5 385.888C202.167 381.328 192.167 375.248 183.5 367.648C175.167 359.744 168.5 350.624 163.5 340.288C158.5 329.952 156 318.856 156 307V278.728H187.5V250H140.5C136.167 250 132.5 251.368 129.5 254.104C126.5 256.84 125 260.336 125 264.592V307C125 322.808 128.167 337.704 134.5 351.688C141.167 365.368 150.167 377.376 161.5 387.712C172.833 398.048 186 406.256 201 412.336Z" fill="#111827"/>
</svg>
